<?xml version="1.0" standalone="no"?><!DOCTYPE svg PUBLIC "-//W3C//DTD SVG 1.1//EN" "http://www.w3.org/Graphics/SVG/1.1/DTD/svg11.dtd"><svg t="1554205384211" class="icon" style="" viewBox="0 0 1024 1024" version="1.1" xmlns="http://www.w3.org/2000/svg" p-id="2063" xmlns:xlink="http://www.w3.org/1999/xlink" width="200" height="200"><defs><style type="text/css"></style></defs><path d="M62 305.8h132c16.5 0 30-13.5 30-30s-13.5-30-30-30H62c-16.5 0-30 13.5-30 30s13.5 30 30 30zM62 557.8h132c16.5 0 30-13.5 30-30s-13.5-30-30-30H62c-16.5 0-30 13.5-30 30s13.5 30 30 30zM224 779.8c0-16.5-13.5-30-30-30H62c-16.5 0-30 13.5-30 30s13.5 30 30 30h132c16.5 0 30-13.5 30-30z" fill="#000000" p-id="2064"></path><path d="M898 0H190c-51.9 0-94 42.1-94 94v87.8c0 16.6 13.4 30 30 30s30-13.4 30-30V94c0-18.8 15.2-34 34-34h708c18.8 0 34 15.2 34 34v836c0 18.8-15.2 34-34 34H190c-18.8 0-34-15.2-34-34v-56.2c0-16.6-13.4-30-30-30s-30 13.4-30 30V930c0 51.9 42.1 94 94 94h708c51.9 0 94-42.1 94-94V94c0-51.9-42.1-94-94-94z" fill="#000000" p-id="2065"></path><path d="M310.7 732.9c-9.1 19.9 5.5 42.5 27.4 42.5h0.3c11.7 0 22.3-6.9 27.2-17.6 31-67.5 99.3-114.6 178.4-114.6 79.1 0 147.4 47 178.4 114.6 4.9 10.7 15.4 17.6 27.2 17.6h0.3c21.8 0 36.4-22.6 27.4-42.5-12.5-27.4-30-52.7-52-74.7-20.6-20.6-44.2-37.3-69.7-49.7 51.7-35.6 85.7-95.2 85.7-162.6 0-108.8-88.5-197.2-197.2-197.2s-197.2 88.5-197.2 197.2c0 67.4 34 127 85.7 162.6-25.5 12.4-49.1 29-69.7 49.7-22.1 21.9-39.6 47.2-52.2 74.7z m96.1-287c0-75.6 61.5-137.2 137.2-137.2s137.2 61.5 137.2 137.2S619.6 583.1 544 583.1s-137.2-61.5-137.2-137.2z" fill="#000000" p-id="2066"></path></svg>