<?xml version="1.0" standalone="no"?><!DOCTYPE svg PUBLIC "-//W3C//DTD SVG 1.1//EN" "http://www.w3.org/Graphics/SVG/1.1/DTD/svg11.dtd"><svg t="1555935686597" class="icon" style="" viewBox="0 0 1024 1024" version="1.1" xmlns="http://www.w3.org/2000/svg" p-id="3045" xmlns:xlink="http://www.w3.org/1999/xlink" width="200" height="200"><defs><style type="text/css"></style></defs><path d="M95.626718 342.011827C226.725812 796.475733 373.457047 950.361353 373.457047 950.361353 354.007987 919.039507 336.150869 869.63037 328.843074 791.354558 317.833444 672.837897 333.638238 571.334353 365.880738 484.600036 243.010105 376.93933 95.626718 342.011827 95.626718 342.011827M154.453485 402.085357C200.141559 420.287526 262.516736 450.592617 320.940715 497.02874 295.910059 574.000546 284.689446 656.534415 287.432249 743.345606 229.430272 623.31373 180.999358 484.063004 154.453485 402.085357" p-id="3046"></path><path d="M642.80007 215.333547C454.312695 361.52775 369.803151 555.00231 391.669001 790.385929 404.577508 929.521664 446.065058 979.659625 480.570786 980.177502L464.592593 980.196693C662.690323 980.196693 842.6807 354.373404 906.39853 73.934696 854.821926 91.619176 746.413321 134.966993 642.80007 215.333547ZM479.957143 1018.538624C448.174914 1018.059108 372.143181 995.215068 353.461325 793.934317 298.259684 199.18355 921.148303 28.802844 927.439454 27.134104L957.62963 19.212516 951.05062 49.728853C950.53293 52.12653 898.438257 291.99853 817.05529 528.76326 705.328546 853.758483 592.719644 1018.557805 482.393126 1018.557805L479.957143 1018.538624Z" p-id="3047"></path></svg>