<?xml version="1.0" standalone="no"?><!DOCTYPE svg PUBLIC "-//W3C//DTD SVG 1.1//EN" "http://www.w3.org/Graphics/SVG/1.1/DTD/svg11.dtd"><svg t="1541051744000" class="icon" style="" viewBox="0 0 1024 1024" version="1.1" xmlns="http://www.w3.org/2000/svg" p-id="1426" xmlns:xlink="http://www.w3.org/1999/xlink" width="200" height="200"><defs><style type="text/css"></style></defs><path d="M511.533884 586.325799c144.208403 0 261.130346-116.903523 261.130346-261.129322 0-144.220682-116.921943-261.123182-261.130346-261.123182-144.20124 0-261.123182 116.903523-261.123182 261.123182C250.410702 469.422276 367.331621 586.325799 511.533884 586.325799L511.533884 586.325799zM720.802048 563.511187c-55.834656 49.040926-129.029702 78.784344-209.182206 78.784344-80.147388 0-153.340387-29.743418-209.176067-78.784344C160.564417 638.623909 63.890634 787.730878 63.890634 959.440635l895.463532 0C959.355189 787.730878 862.676289 638.623909 720.802048 563.511187L720.802048 563.511187zM720.675158 563.511187" p-id="1427"></path></svg>