<?xml version="1.0" standalone="no"?><!DOCTYPE svg PUBLIC "-//W3C//DTD SVG 1.1//EN" "http://www.w3.org/Graphics/SVG/1.1/DTD/svg11.dtd"><svg t="1560327323124" class="icon" style="" viewBox="0 0 1024 1024" version="1.1" xmlns="http://www.w3.org/2000/svg" p-id="3855" xmlns:xlink="http://www.w3.org/1999/xlink" width="200" height="200"><defs><style type="text/css"></style></defs><path d="M511.913102 1023.998293a400.041444 400.041444 0 0 1-284.728018-117.930306L117.75964 796.699432c-157.012854-156.984409-157.012854-412.443184 0-569.399149l109.396999-109.368554A400.041444 400.041444 0 0 1 511.884658 0.001422c107.57656 0 208.724696 41.870094 284.784908 117.930307l109.368554 109.368554A399.899223 399.899223 0 0 1 1023.996871 511.999858c0 107.519671-41.898539 208.667807-117.958751 284.728019l-109.368554 109.34011A400.098333 400.098333 0 0 1 511.913102 1023.998293zM611.553687 369.77807a42.666536 42.666536 0 0 0 0-85.333072h-170.666145a42.666536 42.666536 0 0 0 0 85.333072h170.666145z m85.333073 170.666145a42.666536 42.666536 0 0 0 0-85.333072h-341.332291a42.666536 42.666536 0 0 0 0 85.333072h341.332291z m-85.24774 170.666145a42.666536 42.666536 0 0 0 0-85.333072h-170.666145a42.666536 42.666536 0 0 0 0 85.333072h170.666145z" p-id="3856"></path></svg>